<?xml version="1.0" encoding="us-ascii" standalone="no"?><svg xmlns="http://www.w3.org/2000/svg" xmlns:xlink="http://www.w3.org/1999/xlink" contentStyleType="text/css" height="1682px" preserveAspectRatio="none" style="width:1293px;height:1682px;background:#FFFFFF;" version="1.1" viewBox="0 0 1293 1682" width="1293px" zoomAndPan="magnify"><defs/><g><text fill="#000000" font-family="sans-serif" font-size="14" font-weight="bold" lengthAdjust="spacing" textLength="210" x="537.5" y="29.5332">Detalle de Cuenta - HU 833106</text><rect fill="none" height="288.5156" style="stroke:#000000;stroke-width:1.5;" width="1266" x="10" y="1279.3516"/><line style="stroke:#181818;stroke-width:0.5;stroke-dasharray:5.0,5.0;" x1="47" x2="47" y1="124.8281" y2="1584.8672"/><line style="stroke:#181818;stroke-width:0.5;stroke-dasharray:5.0,5.0;" x1="273.5" x2="273.5" y1="124.8281" y2="1584.8672"/><line style="stroke:#181818;stroke-width:0.5;stroke-dasharray:5.0,5.0;" x1="520" x2="520" y1="124.8281" y2="1584.8672"/><line style="stroke:#181818;stroke-width:0.5;stroke-dasharray:5.0,5.0;" x1="718" x2="718" y1="124.8281" y2="1584.8672"/><line style="stroke:#181818;stroke-width:0.5;stroke-dasharray:5.0,5.0;" x1="880" x2="880" y1="124.8281" y2="1584.8672"/><line style="stroke:#181818;stroke-width:0.5;stroke-dasharray:5.0,5.0;" x1="1008" x2="1008" y1="124.8281" y2="1584.8672"/><text fill="#000000" font-family="sans-serif" font-size="14" lengthAdjust="spacing" textLength="48" x="20" y="121.752">Usuario</text><ellipse cx="47" cy="55.7188" fill="#99CCFF" rx="8" ry="8" style="stroke:#181818;stroke-width:0.5;"/><path d="M47,63.7188 L47,90.7188 M34,71.7188 L60,71.7188 M47,90.7188 L34,105.7188 M47,90.7188 L60,105.7188 " fill="none" style="stroke:#181818;stroke-width:0.5;"/><text fill="#000000" font-family="sans-serif" font-size="14" lengthAdjust="spacing" textLength="48" x="20" y="1598.4004">Usuario</text><ellipse cx="47" cy="1609.9766" fill="#99CCFF" rx="8" ry="8" style="stroke:#181818;stroke-width:0.5;"/><path d="M47,1617.9766 L47,1644.9766 M34,1625.9766 L60,1625.9766 M47,1644.9766 L34,1659.9766 M47,1644.9766 L60,1659.9766 " fill="none" style="stroke:#181818;stroke-width:0.5;"/><rect fill="#CCFFCC" height="49.2188" rx="2.5" ry="2.5" style="stroke:#181818;stroke-width:0.5;" width="169" x="189.5" y="74.6094"/><text fill="#000000" font-family="sans-serif" font-size="14" font-style="italic" lengthAdjust="spacing" textLength="97" x="225.5" y="96.1426">&#171;API Gateway&#187;</text><text fill="#000000" font-family="sans-serif" font-size="14" lengthAdjust="spacing" textLength="155" x="196.5" y="113.752">PIM Management (APIM)</text><rect fill="#CCFFCC" height="49.2188" rx="2.5" ry="2.5" style="stroke:#181818;stroke-width:0.5;" width="169" x="189.5" y="1583.8672"/><text fill="#000000" font-family="sans-serif" font-size="14" font-style="italic" lengthAdjust="spacing" textLength="97" x="225.5" y="1605.4004">&#171;API Gateway&#187;</text><text fill="#000000" font-family="sans-serif" font-size="14" lengthAdjust="spacing" textLength="155" x="196.5" y="1623.0098">PIM Management (APIM)</text><rect fill="#FFCCCC" height="49.2188" rx="2.5" ry="2.5" style="stroke:#181818;stroke-width:0.5;" width="218" x="411" y="74.6094"/><text fill="#000000" font-family="sans-serif" font-size="14" font-style="italic" lengthAdjust="spacing" textLength="129" x="455.5" y="96.1426">&#171;Microservicio BFF&#187;</text><text fill="#000000" font-family="sans-serif" font-size="14" lengthAdjust="spacing" textLength="204" x="418" y="113.752">BHFDIB.MS.Accounts (Backend)</text><rect fill="#FFCCCC" height="49.2188" rx="2.5" ry="2.5" style="stroke:#181818;stroke-width:0.5;" width="218" x="411" y="1583.8672"/><text fill="#000000" font-family="sans-serif" font-size="14" font-style="italic" lengthAdjust="spacing" textLength="129" x="455.5" y="1605.4004">&#171;Microservicio BFF&#187;</text><text fill="#000000" font-family="sans-serif" font-size="14" lengthAdjust="spacing" textLength="204" x="418" y="1623.0098">BHFDIB.MS.Accounts (Backend)</text><rect fill="#FFFFCC" height="49.2188" rx="2.5" ry="2.5" style="stroke:#181818;stroke-width:0.5;" width="159" x="639" y="74.6094"/><text fill="#000000" font-family="sans-serif" font-size="14" font-style="italic" lengthAdjust="spacing" textLength="117" x="660" y="96.1426">&#171;External Service&#187;</text><text fill="#000000" font-family="sans-serif" font-size="14" lengthAdjust="spacing" textLength="145" x="646" y="113.752">Servicio Core Bancario</text><rect fill="#FFFFCC" height="49.2188" rx="2.5" ry="2.5" style="stroke:#181818;stroke-width:0.5;" width="159" x="639" y="1583.8672"/><text fill="#000000" font-family="sans-serif" font-size="14" font-style="italic" lengthAdjust="spacing" textLength="117" x="660" y="1605.4004">&#171;External Service&#187;</text><text fill="#000000" font-family="sans-serif" font-size="14" lengthAdjust="spacing" textLength="145" x="646" y="1623.0098">Servicio Core Bancario</text><rect fill="#CCFFFF" height="49.2188" rx="2.5" ry="2.5" style="stroke:#181818;stroke-width:0.5;" width="145" x="808" y="74.6094"/><text fill="#000000" font-family="sans-serif" font-size="14" font-style="italic" lengthAdjust="spacing" textLength="106" x="827.5" y="96.1426">&#171;Homologaci&#243;n&#187;</text><text fill="#000000" font-family="sans-serif" font-size="14" lengthAdjust="spacing" textLength="131" x="815" y="113.752">Servicio Master Data</text><rect fill="#CCFFFF" height="49.2188" rx="2.5" ry="2.5" style="stroke:#181818;stroke-width:0.5;" width="145" x="808" y="1583.8672"/><text fill="#000000" font-family="sans-serif" font-size="14" font-style="italic" lengthAdjust="spacing" textLength="106" x="827.5" y="1605.4004">&#171;Homologaci&#243;n&#187;</text><text fill="#000000" font-family="sans-serif" font-size="14" lengthAdjust="spacing" textLength="131" x="815" y="1623.0098">Servicio Master Data</text><text fill="#000000" font-family="sans-serif" font-size="14" font-style="italic" lengthAdjust="spacing" textLength="67" x="971.5" y="104.1426">&#171;Logging&#187;</text><text fill="#000000" font-family="sans-serif" font-size="14" lengthAdjust="spacing" textLength="84" x="963" y="121.752">Log Auditor&#237;a</text><path d="M990,53.6094 C990,43.6094 1008,43.6094 1008,43.6094 C1008,43.6094 1026,43.6094 1026,53.6094 L1026,79.6094 C1026,89.6094 1008,89.6094 1008,89.6094 C1008,89.6094 990,89.6094 990,79.6094 L990,53.6094 " fill="#CCCCFF" style="stroke:#181818;stroke-width:1.5;"/><path d="M990,53.6094 C990,63.6094 1008,63.6094 1008,63.6094 C1008,63.6094 1026,63.6094 1026,53.6094 " fill="none" style="stroke:#181818;stroke-width:1.5;"/><text fill="#000000" font-family="sans-serif" font-size="14" font-style="italic" lengthAdjust="spacing" textLength="67" x="971.5" y="1598.4004">&#171;Logging&#187;</text><text fill="#000000" font-family="sans-serif" font-size="14" lengthAdjust="spacing" textLength="84" x="963" y="1616.0098">Log Auditor&#237;a</text><path d="M990,1629.0859 C990,1619.0859 1008,1619.0859 1008,1619.0859 C1008,1619.0859 1026,1619.0859 1026,1629.0859 L1026,1655.0859 C1026,1665.0859 1008,1665.0859 1008,1665.0859 C1008,1665.0859 990,1665.0859 990,1655.0859 L990,1629.0859 " fill="#CCCCFF" style="stroke:#181818;stroke-width:1.5;"/><path d="M990,1629.0859 C990,1639.0859 1008,1639.0859 1008,1639.0859 C1008,1639.0859 1026,1639.0859 1026,1629.0859 " fill="none" style="stroke:#181818;stroke-width:1.5;"/><rect fill="#EEEEEE" height="3" style="stroke:#EEEEEE;stroke-width:1.0;" width="1286" x="0" y="156.0039"/><line style="stroke:#000000;stroke-width:1.0;" x1="0" x2="1286" y1="156.0039" y2="156.0039"/><line style="stroke:#000000;stroke-width:1.0;" x1="0" x2="1286" y1="159.0039" y2="159.0039"/><rect fill="#EEEEEE" height="24.3516" style="stroke:#000000;stroke-width:2.0;" width="285" x="500.5" y="144.8281"/><text fill="#000000" font-family="sans-serif" font-size="13" font-weight="bold" lengthAdjust="spacing" textLength="267" x="506.5" y="162.3232">El usuario consulta el detalle de la cuenta</text><polygon fill="#181818" points="262,295.6406,272,299.6406,262,303.6406,266,299.6406" style="stroke:#181818;stroke-width:1.0;"/><line style="stroke:#181818;stroke-width:1.0;" x1="47" x2="268" y1="299.6406" y2="299.6406"/><text fill="#000000" font-family="sans-serif" font-size="13" lengthAdjust="spacing" textLength="177" x="54" y="196.6748">POST /api/bhd/accounts/detail</text><text fill="#000000" font-family="sans-serif" font-size="13" lengthAdjust="spacing" textLength="76" x="54" y="213.0264">Body(JSON):</text><text fill="#000000" font-family="sans-serif" font-size="13" lengthAdjust="spacing" textLength="4" x="54" y="229.3779">{</text><text fill="#000000" font-family="sans-serif" font-size="13" lengthAdjust="spacing" textLength="141" x="62" y="245.7295">"IdentificationType": "C",</text><text fill="#000000" font-family="sans-serif" font-size="13" lengthAdjust="spacing" textLength="191" x="62" y="262.0811">"IdentificationNumber": "123456",</text><text fill="#000000" font-family="sans-serif" font-size="13" lengthAdjust="spacing" textLength="191" x="62" y="278.4326">"AccountNumber": "0123456789"</text><text fill="#000000" font-family="sans-serif" font-size="13" lengthAdjust="spacing" textLength="4" x="54" y="294.7842">}</text><path d="M52,312.6406 L52,403.6406 L341,403.6406 L341,322.6406 L331,312.6406 L52,312.6406 " fill="#FEFFDD" style="stroke:#181818;stroke-width:0.5;"/><path d="M331,312.6406 L331,322.6406 L341,322.6406 L331,312.6406 " fill="#FEFFDD" style="stroke:#181818;stroke-width:0.5;"/><text fill="#000000" font-family="sans-serif" font-size="13" lengthAdjust="spacing" textLength="268" x="58" y="331.1357">El Frontend env&#237;a un POST con el JSON Body</text><text fill="#000000" font-family="sans-serif" font-size="13" lengthAdjust="spacing" textLength="70" x="58" y="347.4873">que incluye:</text><text fill="#000000" font-family="sans-serif" font-size="13" lengthAdjust="spacing" textLength="108" x="58" y="363.8389">- IdentificationType</text><text fill="#000000" font-family="sans-serif" font-size="13" lengthAdjust="spacing" textLength="125" x="58" y="380.1904">- IdentificationNumber</text><text fill="#000000" font-family="sans-serif" font-size="13" lengthAdjust="spacing" textLength="101" x="58" y="396.542">- AccountNumber</text><polygon fill="#181818" points="508,444.1016,518,448.1016,508,452.1016,512,448.1016" style="stroke:#181818;stroke-width:1.0;"/><line style="stroke:#181818;stroke-width:1.0;" x1="274" x2="514" y1="448.1016" y2="448.1016"/><text fill="#000000" font-family="sans-serif" font-size="13" lengthAdjust="spacing" textLength="222" x="281" y="426.8936">POST /api/banca-linea/accounts/detail</text><text fill="#000000" font-family="sans-serif" font-size="13" lengthAdjust="spacing" textLength="72" x="281" y="443.2451">Body(JSON)</text><path d="M279,461.1016 L279,503.1016 L619,503.1016 L619,471.1016 L609,461.1016 L279,461.1016 " fill="#FEFFDD" style="stroke:#181818;stroke-width:0.5;"/><path d="M609,461.1016 L609,471.1016 L619,471.1016 L609,461.1016 " fill="#FEFFDD" style="stroke:#181818;stroke-width:0.5;"/><text fill="#000000" font-family="sans-serif" font-size="13" lengthAdjust="spacing" textLength="319" x="285" y="479.5967">APIM enruta la petici&#243;n al BFF (Backend For Frontend)</text><text fill="#000000" font-family="sans-serif" font-size="13" lengthAdjust="spacing" textLength="140" x="285" y="495.9482">sin modificar el payload.</text><polygon fill="#181818" points="706.5,543.5078,716.5,547.5078,706.5,551.5078,710.5,547.5078" style="stroke:#181818;stroke-width:1.0;"/><line style="stroke:#181818;stroke-width:1.0;" x1="520" x2="712.5" y1="547.5078" y2="547.5078"/><text fill="#000000" font-family="sans-serif" font-size="13" lengthAdjust="spacing" textLength="131" x="527" y="526.2998">POST /accounts/detail</text><text fill="#000000" font-family="sans-serif" font-size="13" lengthAdjust="spacing" textLength="72" x="527" y="542.6514">Body(JSON)</text><path d="M525,560.5078 L525,602.5078 L823,602.5078 L823,570.5078 L813,560.5078 L525,560.5078 " fill="#FEFFDD" style="stroke:#181818;stroke-width:0.5;"/><path d="M813,560.5078 L813,570.5078 L823,570.5078 L813,560.5078 " fill="#FEFFDD" style="stroke:#181818;stroke-width:0.5;"/><text fill="#000000" font-family="sans-serif" font-size="13" lengthAdjust="spacing" textLength="277" x="531" y="579.0029">El Backend reenv&#237;a la solicitud al Core Bancario</text><text fill="#000000" font-family="sans-serif" font-size="13" lengthAdjust="spacing" textLength="212" x="531" y="595.3545">para obtener los datos  de la cuenta.</text><polygon fill="#181818" points="531,626.5625,521,630.5625,531,634.5625,527,630.5625" style="stroke:#181818;stroke-width:1.0;"/><line style="stroke:#181818;stroke-width:1.0;stroke-dasharray:2.0,2.0;" x1="525" x2="717.5" y1="630.5625" y2="630.5625"/><text fill="#000000" font-family="sans-serif" font-size="13" lengthAdjust="spacing" textLength="123" x="537" y="625.7061">JSON Detalle Cuenta</text><path d="M723,643.5625 L723,669.5625 L1054,669.5625 L1054,653.5625 L1044,643.5625 L723,643.5625 " fill="#FEFFDD" style="stroke:#181818;stroke-width:0.5;"/><path d="M1044,643.5625 L1044,653.5625 L1054,653.5625 L1044,643.5625 " fill="#FEFFDD" style="stroke:#181818;stroke-width:0.5;"/><text fill="#000000" font-family="sans-serif" font-size="13" lengthAdjust="spacing" textLength="310" x="729" y="662.0576">Incluye datos completos: cliente, saldo, moneda, etc.</text><polygon fill="#181818" points="868.5,693.2656,878.5,697.2656,868.5,701.2656,872.5,697.2656" style="stroke:#181818;stroke-width:1.0;"/><line style="stroke:#181818;stroke-width:1.0;" x1="520" x2="874.5" y1="697.2656" y2="697.2656"/><text fill="#000000" font-family="sans-serif" font-size="13" lengthAdjust="spacing" textLength="244" x="527" y="692.4092">GET /homologacion/moneda?codigo=USD</text><path d="M525,710.2656 L525,752.2656 L835,752.2656 L835,720.2656 L825,710.2656 L525,710.2656 " fill="#FEFFDD" style="stroke:#181818;stroke-width:0.5;"/><path d="M825,710.2656 L825,720.2656 L835,720.2656 L825,710.2656 " fill="#FEFFDD" style="stroke:#181818;stroke-width:0.5;"/><text fill="#000000" font-family="sans-serif" font-size="13" lengthAdjust="spacing" textLength="285" x="531" y="728.7607">El Backend consulta al servicio Master Data para</text><text fill="#000000" font-family="sans-serif" font-size="13" lengthAdjust="spacing" textLength="289" x="531" y="745.1123">homologar el c&#243;digo de moneda recibido del Core.</text><polygon fill="#181818" points="531,776.3203,521,780.3203,531,784.3203,527,780.3203" style="stroke:#181818;stroke-width:1.0;"/><line style="stroke:#181818;stroke-width:1.0;stroke-dasharray:2.0,2.0;" x1="525" x2="879.5" y1="780.3203" y2="780.3203"/><text fill="#000000" font-family="sans-serif" font-size="13" lengthAdjust="spacing" textLength="160" x="537" y="775.4639">JSON Moneda Homologada</text><line style="stroke:#181818;stroke-width:1.0;" x1="520" x2="562" y1="810.6719" y2="810.6719"/><line style="stroke:#181818;stroke-width:1.0;" x1="562" x2="562" y1="810.6719" y2="823.6719"/><line style="stroke:#181818;stroke-width:1.0;" x1="521" x2="562" y1="823.6719" y2="823.6719"/><polygon fill="#181818" points="531,819.6719,521,823.6719,531,827.6719,527,823.6719" style="stroke:#181818;stroke-width:1.0;"/><text fill="#000000" font-family="sans-serif" font-size="13" lengthAdjust="spacing" textLength="131" x="527" y="805.8154">Mapear respuesta final</text><path d="M525,836.6719 L525,878.6719 L852,878.6719 L852,846.6719 L842,836.6719 L525,836.6719 " fill="#FEFFDD" style="stroke:#181818;stroke-width:0.5;"/><path d="M842,836.6719 L842,846.6719 L852,846.6719 L842,836.6719 " fill="#FEFFDD" style="stroke:#181818;stroke-width:0.5;"/><text fill="#000000" font-family="sans-serif" font-size="13" lengthAdjust="spacing" textLength="306" x="531" y="855.167">Combina datos del Core y homologaci&#243;n de moneda.</text><text fill="#000000" font-family="sans-serif" font-size="13" lengthAdjust="spacing" textLength="218" x="531" y="871.5186">Transforma el JSON para el Frontend.</text><polygon fill="#181818" points="285,902.7266,275,906.7266,285,910.7266,281,906.7266" style="stroke:#181818;stroke-width:1.0;"/><line style="stroke:#181818;stroke-width:1.0;stroke-dasharray:2.0,2.0;" x1="279" x2="519" y1="906.7266" y2="906.7266"/><text fill="#000000" font-family="sans-serif" font-size="13" lengthAdjust="spacing" textLength="203" x="291" y="901.8701">JSON Detalle Cuenta (simplificado)</text><polygon fill="#181818" points="58,933.0781,48,937.0781,58,941.0781,54,937.0781" style="stroke:#181818;stroke-width:1.0;"/><line style="stroke:#181818;stroke-width:1.0;stroke-dasharray:2.0,2.0;" x1="52" x2="273" y1="937.0781" y2="937.0781"/><text fill="#000000" font-family="sans-serif" font-size="13" lengthAdjust="spacing" textLength="203" x="64" y="932.2217">JSON Detalle Cuenta (simplificado)</text><path d="M52,950.0781 L52,1074.0781 L393,1074.0781 L393,960.0781 L383,950.0781 L52,950.0781 " fill="#FEFFDD" style="stroke:#181818;stroke-width:0.5;"/><path d="M383,950.0781 L383,960.0781 L393,960.0781 L383,950.0781 " fill="#FEFFDD" style="stroke:#181818;stroke-width:0.5;"/><text fill="#000000" font-family="sans-serif" font-size="13" lengthAdjust="spacing" textLength="297" x="58" y="968.5732">El Frontend renderiza el formulario "Detalle Cuenta"</text><text fill="#000000" font-family="sans-serif" font-size="13" lengthAdjust="spacing" textLength="320" x="58" y="984.9248">mostrando &#250;nicamente los campos definidos por la HU:</text><text fill="#000000" font-family="sans-serif" font-size="13" lengthAdjust="spacing" textLength="185" x="58" y="1001.2764">- Nombre del producto (editable)</text><text fill="#000000" font-family="sans-serif" font-size="13" lengthAdjust="spacing" textLength="114" x="58" y="1017.6279">- N&#250;mero de cuenta</text><text fill="#000000" font-family="sans-serif" font-size="13" lengthAdjust="spacing" textLength="65" x="58" y="1033.9795">- Condici&#243;n</text><text fill="#000000" font-family="sans-serif" font-size="13" lengthAdjust="spacing" textLength="167" x="58" y="1050.3311">- Saldo, disponible, bloqueos</text><text fill="#000000" font-family="sans-serif" font-size="13" lengthAdjust="spacing" textLength="240" x="58" y="1066.6826">- Fechas, moneda homologada, intereses</text><polygon fill="#181818" points="996,1097.8906,1006,1101.8906,996,1105.8906,1000,1101.8906" style="stroke:#181818;stroke-width:1.0;"/><line style="stroke:#181818;stroke-width:1.0;" x1="47" x2="1002" y1="1101.8906" y2="1101.8906"/><text fill="#000000" font-family="sans-serif" font-size="13" lengthAdjust="spacing" textLength="94" x="54" y="1097.0342">Registrar acci&#243;n</text><path d="M1013,1114.8906 L1013,1222.8906 L1230,1222.8906 L1230,1124.8906 L1220,1114.8906 L1013,1114.8906 " fill="#FEFFDD" style="stroke:#181818;stroke-width:0.5;"/><path d="M1220,1114.8906 L1220,1124.8906 L1230,1124.8906 L1220,1114.8906 " fill="#FEFFDD" style="stroke:#181818;stroke-width:0.5;"/><text fill="#000000" font-family="sans-serif" font-size="13" lengthAdjust="spacing" textLength="98" x="1019" y="1133.3857">Datos auditados:</text><text fill="#000000" font-family="sans-serif" font-size="13" lengthAdjust="spacing" textLength="52" x="1019" y="1149.7373">- Usuario</text><text fill="#000000" font-family="sans-serif" font-size="13" lengthAdjust="spacing" textLength="20" x="1019" y="1166.0889">- IP</text><text fill="#000000" font-family="sans-serif" font-size="13" lengthAdjust="spacing" textLength="75" x="1019" y="1182.4404">- Fecha/Hora</text><text fill="#000000" font-family="sans-serif" font-size="13" lengthAdjust="spacing" textLength="196" x="1019" y="1198.792">- Acci&#243;n: Consulta Detalle Cuenta</text><text fill="#000000" font-family="sans-serif" font-size="13" lengthAdjust="spacing" textLength="181" x="1019" y="1215.1436">- Alias personalizado (si aplica)</text><rect fill="#EEEEEE" height="3" style="stroke:#EEEEEE;stroke-width:1.0;" width="1286" x="0" y="1249.1758"/><line style="stroke:#000000;stroke-width:1.0;" x1="0" x2="1286" y1="1249.1758" y2="1249.1758"/><line style="stroke:#000000;stroke-width:1.0;" x1="0" x2="1286" y1="1252.1758" y2="1252.1758"/><rect fill="#EEEEEE" height="24.3516" style="stroke:#000000;stroke-width:2.0;" width="255" x="515.5" y="1238"/><text fill="#000000" font-family="sans-serif" font-size="13" font-weight="bold" lengthAdjust="spacing" textLength="237" x="521.5" y="1255.4951">Si ocurre un error en cualquier punto</text><path d="M10,1279.3516 L195,1279.3516 L195,1287.7031 L185,1297.7031 L10,1297.7031 L10,1279.3516 " fill="#EEEEEE" style="stroke:#000000;stroke-width:1.5;"/><rect fill="none" height="288.5156" style="stroke:#000000;stroke-width:1.5;" width="1266" x="10" y="1279.3516"/><text fill="#000000" font-family="sans-serif" font-size="13" font-weight="bold" lengthAdjust="spacing" textLength="140" x="25" y="1293.8467">Error al cargar detalle</text><polygon fill="#181818" points="531,1316.0547,521,1320.0547,531,1324.0547,527,1320.0547" style="stroke:#181818;stroke-width:1.0;"/><line style="stroke:#181818;stroke-width:1.0;stroke-dasharray:2.0,2.0;" x1="525" x2="717.5" y1="1320.0547" y2="1320.0547"/><text fill="#000000" font-family="sans-serif" font-size="13" lengthAdjust="spacing" textLength="128" x="537" y="1315.1982">Error (Timeout / Code)</text><polygon fill="#181818" points="285,1346.4063,275,1350.4063,285,1354.4063,281,1350.4063" style="stroke:#181818;stroke-width:1.0;"/><line style="stroke:#181818;stroke-width:1.0;stroke-dasharray:2.0,2.0;" x1="279" x2="519" y1="1350.4063" y2="1350.4063"/><text fill="#000000" font-family="sans-serif" font-size="13" lengthAdjust="spacing" textLength="111" x="291" y="1345.5498">Error 500 / Timeout</text><polygon fill="#181818" points="58,1376.7578,48,1380.7578,58,1384.7578,54,1380.7578" style="stroke:#181818;stroke-width:1.0;"/><line style="stroke:#181818;stroke-width:1.0;stroke-dasharray:2.0,2.0;" x1="52" x2="273" y1="1380.7578" y2="1380.7578"/><text fill="#000000" font-family="sans-serif" font-size="13" lengthAdjust="spacing" textLength="111" x="64" y="1375.9014">Error 500 / Timeout</text><line style="stroke:#181818;stroke-width:1.0;" x1="47" x2="89" y1="1411.1094" y2="1411.1094"/><line style="stroke:#181818;stroke-width:1.0;" x1="89" x2="89" y1="1411.1094" y2="1424.1094"/><line style="stroke:#181818;stroke-width:1.0;" x1="48" x2="89" y1="1424.1094" y2="1424.1094"/><polygon fill="#181818" points="58,1420.1094,48,1424.1094,58,1428.1094,54,1424.1094" style="stroke:#181818;stroke-width:1.0;"/><text fill="#000000" font-family="sans-serif" font-size="13" lengthAdjust="spacing" textLength="97" x="54" y="1406.2529">Mostrar mensaje</text><path d="M52,1437.1094 L52,1496.1094 L352,1496.1094 L352,1447.1094 L342,1437.1094 L52,1437.1094 " fill="#FEFFDD" style="stroke:#181818;stroke-width:0.5;"/><path d="M342,1437.1094 L342,1447.1094 L352,1447.1094 L342,1437.1094 " fill="#FEFFDD" style="stroke:#181818;stroke-width:0.5;"/><text fill="#000000" font-family="sans-serif" font-size="13" lengthAdjust="spacing" textLength="251" x="58" y="1455.6045">"No pudimos cargar los datos de tu cuenta.</text><text fill="#000000" font-family="sans-serif" font-size="13" lengthAdjust="spacing" textLength="279" x="58" y="1471.9561">Verifica tu conexi&#243;n o intenta recargar la p&#225;gina.</text><text fill="#000000" font-family="sans-serif" font-size="13" lengthAdjust="spacing" textLength="264" x="58" y="1488.3076">Si el problema contin&#250;a, int&#233;ntalo m&#225;s tarde."</text><polygon fill="#181818" points="996,1519.5156,1006,1523.5156,996,1527.5156,1000,1523.5156" style="stroke:#181818;stroke-width:1.0;"/><line style="stroke:#181818;stroke-width:1.0;" x1="47" x2="1002" y1="1523.5156" y2="1523.5156"/><text fill="#000000" font-family="sans-serif" font-size="13" lengthAdjust="spacing" textLength="132" x="54" y="1518.6592">Registrar intento fallido</text><path d="M1013,1536.5156 L1013,1562.5156 L1266,1562.5156 L1266,1546.5156 L1256,1536.5156 L1013,1536.5156 " fill="#FEFFDD" style="stroke:#181818;stroke-width:0.5;"/><path d="M1256,1536.5156 L1256,1546.5156 L1266,1546.5156 L1256,1536.5156 " fill="#FEFFDD" style="stroke:#181818;stroke-width:0.5;"/><text fill="#000000" font-family="sans-serif" font-size="13" lengthAdjust="spacing" textLength="232" x="1019" y="1555.0107">Acci&#243;n: Error al consultar detalle cuenta</text><!--SRC=[ZLPDSzis4BtpL-meXqepjkKq7qqqJZh-KknEvNWgkoTV812IaO800v1ft4v_J8uzz9HRhlfZVGkGbEJ8RNIGI61tiVlUsuKgNHb59weI1h-vekDQsKhGBfrTquidJnxlFy-ox-ZLApgKbVCgq1rDTQXK8G9MCy6hT1rguRKZh8szizMfpOaUlNmfvNoUbS9NMkfIs8fwb-SJcWWh5gh0ETG_nCAWnuxyH0S7-A4tebA_YxlNh-aHHv1oCyRHsVZa_6XlCjqxbDBLjWhKFnBoDsNp5AfvGRI9bju5vJ_0sT7HUCmnEUBzcDFMvXX58e2LN52C5bSE3au_LifROIYPgXJfw-owI1C1c3oTY4h4EEcTNn7jp1NEk8MGUldPjeK2h1pRCn4KzNvs2pgiSmryb_-a2F6LrmyEyBtGTf4y8yo9fR6ftpaglRQSZw7-j9PIXK2NeheTC6CmEZLKDun9PqDja98oOBzJWH4aan3WaNMSxhvED8teyktqYeQYrCFPRJuK3Gz33g7DZJro-Lt_f-dRYy7enlvvOubwvpdYwRcMejBENjsLgZUYtd5lPylkHLtCbEVznzy_UVhiUMFKqBtQtK_RFxnusRknVsNMLOgyNjnMvEQT4ZEK6vzP4if-09fKsrG1okVAELFYdBFtjI9WP-exDSfswUkalrfCsM1v8xkC3-DyiYmY1kHQLMw0nqBRDTegyLyWtgkC8wQmoleQ986kKh448IO2wn1wrn8qHeEszG-oe2qLBe_fUwwz57V6YNnlBUFM4qb7yNSPVtE6JGI6lWtcLOCzaWtE8DcgpZdPZOxZNXBaPaWMlMDS87G4lZT4kPvhzDxTW3UosOwqDC_kfSTEsNcYkJb0kg8q2ayZaaR3H-rG42PtEu3BgbpiaAha0oYjjVQ8tfm2gjkklvqTfW0_Ii2-SA-kfoV_ZrRNbm0eR9aen3XbxIcHIBdypF4PgNGW89TwfdDUIZ2lfx-MynRu9Yb2EwPoiLxkodOYIeNJSI-KjGe8DTSOaG-KT-oA6RORmDkSSA7ShW_3LVvxsPKNDioTBqJNfL4VQjNHMnbPpQajMg1-qE0wTa3k1ar_mgKRSz_azYtJnkDBUVr7p9Zhg4sSkhtDqBsiSA52hQ1g-SNY0BuSLPG_dik85f05bO5Aj3CwuUoQvzC58FKgObbwbzUuZQclS4k8cL43DbX-APIFeaYzWxLZP_CqA_0oJHhFTIYTrV3QePbn68CkO7UivAq8RGjqH74tQ6G8tbLO8s3ZecWlgn7zeXQQw_E42HBFlJVF6jFi92f3y2im3bnXyzU2n-vbcz3mp7cH9Yv76t55gLlkTJrCZCR5MIeV78G99W0nY2G19gKOhEM-TdqAmrSz34-z1zfemROTVNj9jbVfL9EJjGS7k59KD5SMK0lpljRerHBpqiLBTE5TNT8gel2BLRYCyDaoof9v_qeNojKL3M6JWrUstYBsPFriVn-6ZKiqtQRmXspNALmpdxX488GPnBkKxmCDm5kz2_m90Or5L72iT3NBeSMgxaOvc_-A9k6-YkkGsiSu25pK6BSU1baJ18Dl-Gd_V1f7m9-a3-5YIC2tqdRv9Sbp-JTyZQDY-IaGkClLNYzwhKY_N_5MqQOi7Ct155fmI-sTW2FQhIeVLa_RYnl9y8Zy5m00]--></g></svg>